<?xml version="1.0" encoding="utf-8"?>
<!-- Generator: Adobe Illustrator 26.5.0, SVG Export Plug-In . SVG Version: 6.00 Build 0)  -->
<svg version="1.1" id="Слой_1" xmlns="http://www.w3.org/2000/svg" xmlns:xlink="http://www.w3.org/1999/xlink" x="0px" y="0px"
	 viewBox="0 0 2885.93 672.96" style="enable-background:new 0 0 2885.93 672.96;" xml:space="preserve">
<style type="text/css">
	.st0{fill:#FFFFFF;}
</style>
<polygon class="st0" points="390.66,239.56 330.77,189.26 270.87,239.56 270.87,36.66 390.66,36.66 "/>
<g>
	<path class="st0" d="M691.75,343.87V62.71l59.02-8.2v289.35H691.75z"/>
	<path class="st0" d="M804.04,119.27V56.56h59.02v62.71H804.04z M804.04,343.87v-199.6h59.02v199.6H804.04z"/>
	<path class="st0" d="M997.49,347.97c-21.31,0-53.69-2.05-81.15-6.56V62.71l59.02-8.2v96.73c15.98-6.15,34.84-11.07,56.56-11.07
		c44.26,0,61.48,27.46,61.48,72.13v51.64C1093.39,311.49,1079.87,347.97,997.49,347.97z M975.36,295.92
		c8.61,0.82,15.98,0.82,24.18,0.82c29.51,0,34.84-13.53,34.84-32.38v-51.64c0-13.12-5.74-21.31-21.31-21.31
		c-12.71,0-26.64,5.33-37.71,11.07V295.92z"/>
	<path class="st0" d="M1198.72,347.97c-21.72,0-52.87-5.33-72.54-11.88l9.43-43.85c16.39,4.92,38.12,9.02,60.25,9.02
		c17.62,0,20.49-4.92,20.49-16.8c0-12.71-0.41-14.34-32.38-22.13c-48.36-11.89-52.87-25-52.87-62.3c0-42.21,16.39-59.84,76.23-59.84
		c15.16,0,43.03,2.05,60.66,6.56l-5.33,45.9c-17.62-3.28-39.35-5.74-54.92-5.74c-17.21,0-21.31,4.51-21.31,13.53
		c0,12.3,1.64,13.93,25.41,19.26c56.97,12.71,61.07,25,61.07,64.76C1272.9,325.43,1255.68,347.97,1198.72,347.97z"/>
	<path class="st0" d="M1346.26,424.61l23.36-80.74h-18.85l-61.48-199.6h59.84l40.58,141.4l40.58-141.4h59.84l-62.71,199.6
		L1402,424.61H1346.26z"/>
	<path class="st0" d="M1579.05,347.97c-21.72,0-52.87-5.33-72.54-11.88l9.43-43.85c16.39,4.92,38.12,9.02,60.25,9.02
		c17.62,0,20.49-4.92,20.49-16.8c0-12.71-0.41-14.34-32.38-22.13c-48.36-11.89-52.87-25-52.87-62.3c0-42.21,16.39-59.84,76.23-59.84
		c15.16,0,43.03,2.05,60.66,6.56l-5.33,45.9c-17.62-3.28-39.35-5.74-54.92-5.74c-17.21,0-21.31,4.51-21.31,13.53
		c0,12.3,1.64,13.93,25.41,19.26c56.97,12.71,61.07,25,61.07,64.76C1653.23,325.43,1636.02,347.97,1579.05,347.97z"/>
	<path class="st0" d="M1761.02,347.97c-38.12,0-60.25-14.34-60.25-51.23V191.81h-27.05v-47.54h27.05V96.32l59.02-8.2v56.15h45.49
		l-3.28,47.54h-42.22v96.72c0,8.2,4.92,11.07,12.3,11.07c6.56,0,15.98-0.82,24.59-3.69l6.97,44.67
		C1790.53,345.1,1774.54,347.97,1761.02,347.97z"/>
	<path class="st0" d="M1890.52,264.77v5.74c0,22.95,9.02,29.1,36.07,29.1c18.44,0,43.03-3.28,60.66-8.61l8.61,44.26
		c-18.03,6.56-47.13,12.7-75,12.7c-64.76,0-89.35-31.97-89.35-81.15v-46.72c0-43.03,19.26-79.92,85.66-79.92
		c66.4,0,80.74,39.35,80.74,82.79v41.8H1890.52z M1942.16,211.9c0-13.93-4.1-25.41-24.59-25.41c-20.49,0-27.05,11.48-27.05,25.41
		v8.61h51.64V211.9z"/>
	<path class="st0" d="M2157.33,343.87V211.9c0-9.02-4.1-14.34-14.34-14.34c-10.66,0-30.33,7.38-43.03,14.34v131.97h-59.02v-199.6
		h43.85l6.15,15.16c24.59-11.89,56.56-19.26,79.51-19.26c17.62,0,29.51,6.97,36.48,19.26c22.54-11.07,52.46-19.26,79.92-19.26
		c34.02,0,45.9,25.41,45.9,63.94v139.76h-59.02V211.9c0-9.02-4.1-14.34-14.34-14.34c-10.66,0-30.33,7.38-43.03,14.34v131.97H2157.33
		z"/>
	<path class="st0" d="M2383.97,343.87v-68.03h59.02v68.03H2383.97z"/>
	<path class="st0" d="M2496.26,343.87V62.71l59.02-8.2v289.35H2496.26z M2613.89,144.27h63.12l-52.46,99.18l54.92,100.41h-63.12
		l-53.28-100.41L2613.89,144.27z"/>
	<path class="st0" d="M2704.46,144.27h150.82v45.08l-82.79,109.43h85.25v45.08h-153.7v-45.08l82.38-109.43h-81.97V144.27z"/>
</g>
<g>
	<path class="st0" d="M691.75,482.5h24.83v73.4h27.81v-73.4h25.01v73.4h12.37v44.33h-24.83v-24.92h-65.18V482.5z"/>
	<path class="st0" d="M799.73,482.5h24.83v52.72h1.26l29.16-52.72h25.01v92.81h-25.01v-52.72l-1.04,0.03l-29.25,52.7h-24.96V482.5z"
		/>
	<path class="st0" d="M946.88,571.61c-3.79,3.97-9.84,5.96-18.15,5.96c-14.75,0-24.47-8.45-29.16-25.34
		c-2.05-7.34-3.07-15.09-3.07-23.27c0-18.88,4.48-32.71,13.45-41.49c4.81-4.75,11.07-7.13,18.78-7.13c8.31,0,14.35,1.96,18.15,5.87
		h1.08v-41.08h24.83v41.08h1.17c3.8-3.91,9.83-5.87,18.09-5.87c14.77,0,24.51,8.45,29.21,25.35c2.05,7.34,3.08,15.09,3.08,23.27
		c0,18.82-4.49,32.62-13.48,41.4c-4.88,4.81-11.15,7.22-18.81,7.22c-8.26,0-14.29-1.99-18.09-5.96h-1.17v35.48h-24.83v-35.48H946.88
		z M935.42,499.75c-6.26,0-10.38,3.58-12.37,10.73c-1.02,3.67-1.53,9.83-1.53,18.48c0,8.96,0.63,15.51,1.9,19.65
		c1.93,6.37,5.93,9.55,12.01,9.55c5.54,0,9.72-1.92,12.55-5.77v-46.87C945.14,501.67,940.95,499.75,935.42,499.75z M985.48,499.75
		c-5.62,0-9.84,1.92-12.68,5.77v46.87c2.84,3.85,7.07,5.77,12.68,5.77c7.67,0,12.08-4.87,13.22-14.6c0.42-3.67,0.63-8.53,0.63-14.6
		c0-8.77-0.48-14.93-1.45-18.48C995.95,503.32,991.82,499.75,985.48,499.75z"/>
	<path class="st0" d="M1064.88,489.55h1.36c6.57-6.14,13.59-9.21,21.07-9.21c12.3,0,21.4,5.32,27.31,15.96
		c4.76,8.48,7.14,19.36,7.14,32.65c0,19.84-5,33.92-15.01,42.21c-5.19,4.27-11.67,6.4-19.44,6.4c-7.47,0-14.5-3.1-21.07-9.3
		l-1.36,0.9v37.92h-24.83V482.5h24.83V489.55z M1080.13,558.16c11.2,0,16.8-9.73,16.8-29.21c0-19.47-5.6-29.2-16.8-29.2
		c-5.33,0-10.41,3.51-15.25,10.55v37.32c3.81,5.65,7.57,8.98,11.26,10.01C1077.41,557.98,1078.74,558.16,1080.13,558.16z"/>
	<path class="st0" d="M1151.1,482.5h72.13v92.81h-24.83v-73.4h-22.3v45.32c0,18.72-6.41,28.08-19.23,28.08h-18.15V555.9h5.6
		c4.51,0,6.77-3.07,6.77-9.21V482.5z"/>
	<path class="st0" d="M1241.19,482.5h24.83v30.33h22.43c9.16,0,16.34,3.04,21.52,9.12c4.94,5.72,7.42,13.21,7.42,22.48
		c0,12.58-4.57,21.58-13.72,26.99c-4.39,2.59-9.45,3.88-15.17,3.88h-47.31V482.5z M1266.02,532.25v23.65h15.22
		c7.43,0,11.14-3.94,11.14-11.83c0-7.88-3.71-11.83-11.14-11.83H1266.02z M1324.16,482.5h25.01v92.81h-25.01V482.5z"/>
	<path class="st0" d="M1464.09,515.82h0.36c3.15,0,6.82-3.67,11.01-11.01l4.42-7.85c6.26-11.07,13.18-16.61,20.77-16.61h10.47v19.41
		h-3.07c-5.05,0-9.55,3.89-13.52,11.66c-2.43,4.68-3.95,7.5-4.56,8.46c-1.92,3.01-4.23,5.09-6.93,6.23v1.17
		c8.85,2.11,15.95,9.48,21.31,22.12l3.43,8.13c3.25,7.77,6.23,13.33,8.94,16.7v1.08h-26.32c-1.33-2.35-2.77-6.05-4.34-11.1
		c-0.18-0.66-0.97-3.07-2.35-7.22c-2.05-6.32-4.25-10.98-6.6-13.99c-3.2-4.15-7.54-6.74-13.02-7.76v40.08h-24.83V482.5h24.83V515.82
		z"/>
	<path class="st0" d="M1525.21,445.13h24.83v25.01h-24.83V445.13z M1525.21,482.5h24.83v92.81h-24.83V482.5z"/>
	<path class="st0" d="M1564.94,482.5h77.73v19.41h-26.45v73.4h-24.83v-73.4h-26.45V482.5z"/>
	<path class="st0" d="M1711.82,568.27h-1.17c-4.57,6.2-12.16,9.3-22.75,9.3c-12.22,0-20.71-4.21-25.46-12.63
		c-2.35-4.15-3.52-8.87-3.52-14.16c0-12.02,5.87-20.68,17.6-25.97c4.45-1.98,10.2-3.88,17.24-5.68c5.18-1.32,11.04-2.86,17.6-4.6
		v-5.5c0-6.19-4-9.29-12.01-9.29c-3.13,0-6.02,1.18-8.67,3.54c-2.65,2.36-4.24,5.09-4.78,8.2l-22.93-5.31
		c2.71-11.52,9.39-19.23,20.04-23.14c4.88-1.8,10.32-2.7,16.34-2.7c9.93,0,18.18,1.8,24.74,5.41c8.18,4.51,12.28,11.34,12.28,20.48
		v54.3c0,5.41,0.93,10.34,2.8,14.79h-23.47C1714.14,573.63,1712.85,571.28,1711.82,568.27z M1711.37,547.6v-12.37
		c-5.44,0.6-9.51,1.21-12.23,1.81c-10.27,2.35-15.4,7.1-15.4,14.26c0,2.23,1.15,3.97,3.44,5.24c1.87,1.08,4.01,1.62,6.43,1.62
		c4.53,0,8.06-0.75,10.6-2.26C1706.75,554.4,1709.14,551.63,1711.37,547.6z"/>
	<path class="st0" d="M1757.05,482.5h78.9v92.81h-24.83v-73.4h-29.25v73.4h-24.83V482.5z"/>
	<path class="st0" d="M1849.68,482.5h28.62l14.08,26.27v1.08h1.08v-1.08l14.08-26.27h28.62v1.08l-28.8,43.24l31.6,47.4v1.08h-28.44
		l-17.06-31.42v-1.08h-1.08v1.08l-17.06,31.42h-28.44v-1.08l31.6-47.4l-28.8-43.24V482.5z"/>
	<path class="st0" d="M2005.41,568.27h-1.17c-4.57,6.2-12.16,9.3-22.75,9.3c-12.22,0-20.7-4.21-25.46-12.63
		c-2.35-4.15-3.52-8.87-3.52-14.16c0-12.02,5.87-20.68,17.61-25.97c4.45-1.98,10.2-3.88,17.24-5.68c5.18-1.32,11.04-2.86,17.6-4.6
		v-5.5c0-6.19-4-9.29-12.01-9.29c-3.13,0-6.02,1.18-8.67,3.54c-2.65,2.36-4.24,5.09-4.78,8.2l-22.93-5.31
		c2.71-11.52,9.39-19.23,20.04-23.14c4.87-1.8,10.32-2.7,16.34-2.7c9.93,0,18.18,1.8,24.74,5.41c8.19,4.51,12.28,11.34,12.28,20.48
		v54.3c0,5.41,0.93,10.34,2.8,14.79h-23.47C2007.73,573.63,2006.43,571.28,2005.41,568.27z M2004.96,547.6v-12.37
		c-5.43,0.6-9.51,1.21-12.23,1.81c-10.27,2.35-15.4,7.1-15.4,14.26c0,2.23,1.15,3.97,3.44,5.24c1.87,1.08,4.01,1.62,6.43,1.62
		c4.53,0,8.06-0.75,10.6-2.26C2000.34,554.4,2002.73,551.63,2004.96,547.6z"/>
	<path class="st0" d="M2050.64,482.5h24.83v33.31h29.25V482.5h24.83v92.81h-24.83v-40.08h-29.25v40.08h-24.83V482.5z"/>
	<path class="st0" d="M2200.42,568.27h-1.17c-4.57,6.2-12.16,9.3-22.75,9.3c-12.22,0-20.7-4.21-25.46-12.63
		c-2.35-4.15-3.52-8.87-3.52-14.16c0-12.02,5.87-20.68,17.6-25.97c4.45-1.98,10.2-3.88,17.24-5.68c5.18-1.32,11.04-2.86,17.6-4.6
		v-5.5c0-6.19-4-9.29-12.01-9.29c-3.13,0-6.02,1.18-8.67,3.54c-2.65,2.36-4.24,5.09-4.78,8.2l-22.93-5.31
		c2.71-11.52,9.39-19.23,20.04-23.14c4.87-1.8,10.32-2.7,16.34-2.7c9.93,0,18.18,1.8,24.74,5.41c8.19,4.51,12.28,11.34,12.28,20.48
		v54.3c0,5.41,0.93,10.34,2.8,14.79h-23.47C2202.73,573.63,2201.44,571.28,2200.42,568.27z M2199.96,547.6v-12.37
		c-5.43,0.6-9.51,1.21-12.23,1.81c-10.27,2.35-15.4,7.1-15.4,14.26c0,2.23,1.15,3.97,3.44,5.24c1.87,1.08,4.01,1.62,6.43,1.62
		c4.53,0,8.06-0.75,10.6-2.26C2195.35,554.4,2197.73,551.63,2199.96,547.6z"/>
	<path class="st0" d="M2389.19,515.82h0.36c3.17,0,6.85-3.66,11.06-10.99l4.39-7.87c6.26-11.08,13.17-16.62,20.76-16.62h10.56v19.41
		h-3.16c-5.06,0-9.57,3.89-13.54,11.68c-2.41,4.68-3.91,7.49-4.51,8.45c-1.93,3.01-4.24,5.09-6.95,6.23v1.17
		c8.85,2.11,15.95,9.48,21.31,22.12l3.43,8.13c3.07,7.28,6.05,12.85,8.94,16.7v1.08h-26.32c-1.33-2.35-2.77-6.05-4.34-11.1
		c-0.18-0.66-0.97-3.07-2.35-7.22c-2.05-6.32-4.25-10.98-6.6-13.99c-3.2-4.15-7.54-6.74-13.02-7.76v40.08h-24.83v-40.08
		c-5.42,1.02-9.72,3.61-12.91,7.76c-2.47,3.19-4.69,7.85-6.68,13.99c-0.78,2.47-2.23,6.83-4.33,13.09
		c-0.66,1.87-1.44,3.61-2.35,5.24h-26.27v-1.08c2.59-3.31,5.66-9.11,9.21-17.4c3.67-8.84,6.68-14.94,9.03-18.31
		c4.21-6.01,9.36-9.74,15.44-11.18v-1.17c-2.59-1.2-4.82-3.16-6.68-5.86c-0.66-0.96-2.08-3.64-4.24-8.03
		c-4.15-8.36-8.82-12.53-13.99-12.53h-3.16v-19.41h10.47c7.4,0,14.32,5.55,20.76,16.66c1.81,3.18,5.21,8.67,10.2,16.48
		c1.44,1.56,3.16,2.34,5.15,2.34h0.36V482.5h24.83V515.82z"/>
	<path class="st0" d="M2449.41,482.5h24.1l16.25,64.37h0.9l16.25-64.37h24.01v1.08l-28.26,91.72v31.78h-24.83v-31.78L2449.41,482.5z
		"/>
	<path class="st0" d="M2542.49,482.5h24.83v52.72l1.24-0.01l29.23-52.71h24.96v92.81h-25.01v-52.72h-1.08l-29.34,52.72h-24.83V482.5
		z M2563.16,442.96c6.92,6.38,13.45,9.57,19.59,9.57c6.26,0,12.79-3.19,19.59-9.57l10.2,10.11c-2.83,4.27-7.22,7.89-13.18,10.83
		c-5.72,2.77-11.26,4.15-16.61,4.15c-5.3,0-10.8-1.41-16.52-4.24c-6.02-2.95-10.41-6.53-13.18-10.74L2563.16,442.96z"/>
	<path class="st0" d="M2680.89,480.34c13.6,0,24.13,4.81,31.6,14.42c6.68,8.71,10.02,20.1,10.02,34.16c0,1.92-0.12,4.03-0.36,6.31
		h-57.87c1.93,15.29,7.46,22.93,16.61,22.93c7.46,0,12.46-4.39,14.99-13.18l23.65,4.06c-2.59,8.79-7.37,15.74-14.35,20.85
		c-6.98,5.12-15.08,7.67-24.29,7.67c-17.94,0-30.24-7.85-36.92-23.54c-3.13-7.34-4.69-15.69-4.69-25.07
		c0-18.82,5.9-32.68,17.69-41.58C2663.22,482.68,2671.2,480.34,2680.89,480.34z M2696.78,515.82c-1.75-10.71-7.04-16.07-15.89-16.07
		c-5.06,0-8.79,1.5-11.19,4.49c-1.81,2.21-3.31,6.07-4.51,11.58H2696.78z"/>
	<path class="st0" d="M2778.48,499.75c-11.07,0-16.61,9.74-16.61,29.2c0,19.47,5.54,29.21,16.61,29.21
		c8.13,0,13.93-6.11,17.42-18.33l21.22,6.23c-2.95,12.82-9.93,21.97-20.94,27.45c-5.42,2.71-11.32,4.06-17.69,4.06
		c-16.91,0-29.01-7.58-36.29-22.73c-3.55-7.4-5.33-16.02-5.33-25.89c0-20.2,6.68-34.48,20.04-42.84c6.14-3.85,13.33-5.77,21.58-5.77
		c13.24,0,23.65,5.04,31.24,15.13c3.55,4.68,6.02,10.09,7.4,16.21l-21.22,6.3C2792.41,505.83,2786.6,499.75,2778.48,499.75z"/>
	<path class="st0" d="M2832.92,445.13h24.83v25.01h-24.83V445.13z M2832.92,482.5h24.83v92.81h-24.83V482.5z"/>
</g>
<g>
	<path class="st0" d="M316.43,402.47v26.15H213.64V282.66h30.61v119.81H316.43z"/>
	<path class="st0" d="M365.08,398.62c4.87,5.88,13.38,8.92,25.34,8.92c7.3,0,13.18-0.81,17.64-2.43
		c8.51-3.04,12.77-8.72,12.77-16.83c0-4.87-2.03-8.51-6.28-11.15c-4.26-2.64-10.95-4.87-20.07-6.89l-15.41-3.45
		c-15-3.45-25.54-7.1-31.42-11.15c-9.73-6.89-14.8-17.23-14.8-31.63c0-13.18,4.87-23.92,14.39-32.64
		c9.33-8.51,23.31-12.97,41.76-12.97c15.41,0,28.58,4.05,39.33,12.16c10.95,8.31,16.62,20.07,17.03,35.68h-29.19
		c-0.61-8.92-4.46-15.2-11.56-18.85c-4.66-2.43-10.74-3.65-17.64-3.65c-7.91,0-14.19,1.62-18.85,4.87c-4.66,3.04-7.1,7.5-7.1,13.18
		c0,5.27,2.43,9.12,7.1,11.76c2.84,1.62,9.12,3.65,18.85,6.08l25.14,5.88c11.15,2.84,19.46,6.28,24.94,10.74
		c8.72,6.69,13.18,16.83,13.18,29.8c0,13.18-5.07,24.33-15.21,33.04c-10.34,8.92-24.73,13.38-43.38,13.38
		c-18.85,0-33.86-4.46-44.8-13.18c-10.95-8.51-16.22-20.48-16.22-35.68h28.99C360.41,390.31,362.44,395.18,365.08,398.62z"/>
</g>
<path class="st0" d="M427.46,77.52c12.88,1.92,53.03,23.22,74.63,39.52c38.24,28.87,67.64,64.97,87.88,108.4
	c18.96,40.66,27.28,83.56,26.49,128.32c-3.57,78.82-33.1,146.09-90.77,200.21c-52.35,49.12-115.13,74.02-186.74,77.06
	c-77.47,1.02-145.45-23.69-202.4-76.35c-50.71-46.89-80.44-105.16-89.16-173.68c-6.51-51.13,0.44-100.65,20.83-148.1
	c19.13-44.49,47.88-81.72,85.89-111.72c24.01-18.95,64.28-40.91,78.74-43.29c0.23,0.65,0.63,1.34,0.7,2.05
	c0.13,1.27,0.06,2.55,0.06,3.83c0,31.8,0,63.6,0,95.4c0,0.48-0.06,0.97,0.01,1.44c0.52,3.46-1.09,5.51-3.97,7.35
	c-22.81,14.61-41.6,33.32-56.33,56.05c-12.82,19.79-21.52,41.25-26.22,64.39c-3.27,16.08-4.44,32.29-3.43,48.59
	c1.47,23.49,7.08,46.01,17.12,67.37c10.11,21.5,23.69,40.51,40.97,56.84c23.97,22.65,51.93,38.09,83.98,46.03
	c14.64,3.63,29.51,5.56,44.6,5.53c29.92-0.07,58.3-6.68,85-20.27c33.26-16.92,59.18-41.62,77.92-73.81
	c10.95-18.81,18.23-39.03,22.04-60.45c1.2-6.75,2.2-13.54,2.31-20.44c0.06-3.51,0.64-7.01,0.63-10.51
	c-0.2-43.63-13.17-82.92-40.16-117.4c-13.03-16.64-28.52-30.59-46.29-42.03c-0.81-0.52-1.6-1.06-2.43-1.54
	c-1.37-0.79-2.07-1.93-2.04-3.53c0.02-1.12-0.02-2.24-0.02-3.36c0-32.28,0-64.56,0.01-96.84C427.31,81.02,427.4,79.44,427.46,77.52z
	"/>
</svg>
