<?xml version="1.0" encoding="UTF-8"?>
<svg id="_Слой_1" data-name="Слой 1" xmlns="http://www.w3.org/2000/svg" viewBox="0 0 640.63 640.63">
  <defs>
    <style>
      .cls-1 {
        fill: #fff;
      }
    </style>
  </defs>
  <polygon class="cls-1" points="380.21 226.02 320.31 175.72 260.42 226.02 260.42 23.12 380.21 23.12 380.21 226.02"/>
  <g>
    <path class="cls-1" d="M305.97,388.93v26.15h-102.78v-145.96h30.61v119.81h72.17Z"/>
    <path class="cls-1" d="M354.62,385.08c4.87,5.88,13.38,8.92,25.34,8.92,7.3,0,13.18-.81,17.64-2.43,8.51-3.04,12.77-8.72,12.77-16.83,0-4.87-2.03-8.51-6.28-11.15-4.26-2.64-10.95-4.87-20.07-6.89l-15.41-3.45c-15-3.45-25.54-7.1-31.42-11.15-9.73-6.89-14.8-17.23-14.8-31.63,0-13.18,4.87-23.92,14.39-32.64,9.33-8.51,23.31-12.97,41.76-12.97,15.41,0,28.58,4.05,39.33,12.16,10.95,8.31,16.62,20.07,17.03,35.68h-29.19c-.61-8.92-4.46-15.2-11.56-18.85-4.66-2.43-10.74-3.65-17.64-3.65-7.91,0-14.19,1.62-18.85,4.87-4.66,3.04-7.1,7.5-7.1,13.18,0,5.27,2.43,9.12,7.1,11.76,2.84,1.62,9.12,3.65,18.85,6.08l25.14,5.88c11.15,2.84,19.46,6.28,24.94,10.74,8.72,6.69,13.18,16.83,13.18,29.8s-5.07,24.33-15.21,33.04c-10.34,8.92-24.73,13.38-43.38,13.38s-33.86-4.46-44.8-13.18c-10.95-8.51-16.22-20.48-16.22-35.68h28.99c.81,6.69,2.84,11.56,5.47,15Z"/>
  </g>
  <path class="cls-1" d="M417.01,63.98c12.88,1.92,53.03,23.22,74.63,39.52,38.24,28.87,67.64,64.97,87.88,108.4,18.96,40.66,27.28,83.56,26.49,128.32-3.57,78.82-33.1,146.09-90.77,200.21-52.35,49.12-115.13,74.02-186.74,77.06-77.47,1.02-145.45-23.69-202.4-76.35-50.71-46.89-80.44-105.16-89.16-173.68-6.51-51.13,.44-100.65,20.83-148.1,19.13-44.49,47.88-81.72,85.89-111.72,24.01-18.95,64.28-40.91,78.74-43.29,.23,.65,.63,1.34,.7,2.05,.13,1.27,.06,2.55,.06,3.83,0,31.8,0,63.6,0,95.4,0,.48-.06,.97,0,1.44,.52,3.46-1.09,5.51-3.97,7.35-22.81,14.61-41.6,33.32-56.33,56.05-12.82,19.79-21.52,41.25-26.22,64.39-3.27,16.08-4.44,32.29-3.43,48.59,1.47,23.49,7.08,46.01,17.12,67.37,10.11,21.5,23.69,40.51,40.97,56.84,23.97,22.65,51.93,38.09,83.98,46.03,14.64,3.63,29.51,5.56,44.6,5.53,29.92-.07,58.3-6.68,85-20.27,33.26-16.92,59.18-41.62,77.92-73.81,10.95-18.81,18.23-39.03,22.04-60.45,1.2-6.75,2.2-13.54,2.31-20.44,.06-3.51,.64-7.01,.63-10.51-.2-43.63-13.17-82.92-40.16-117.4-13.03-16.64-28.52-30.59-46.29-42.03-.81-.52-1.6-1.06-2.43-1.54-1.37-.79-2.07-1.93-2.04-3.53,.02-1.12-.02-2.24-.02-3.36,0-32.28,0-64.56,0-96.84,0-1.58,.09-3.15,.16-5.08Z"/>
</svg>